<?xml version="1.0" encoding="UTF-8"?>
<svg xmlns="http://www.w3.org/2000/svg" xmlns:xlink="http://www.w3.org/1999/xlink" width="900px" height="250px" viewBox="0 0 900 250" version="1.1">
<g id="surface1">
<path style=" stroke:none;fill-rule:nonzero;fill:rgb(0%,65.882353%,77.647059%);fill-opacity:1;" d="M 0 122.535156 L 0 244.953125 L 70.292969 244.953125 C 159.308594 244.953125 176.714844 242.820312 194.289062 230.167969 C 203.15625 223.921875 209.398438 216.035156 214.816406 204.203125 C 218.757812 195.820312 219.25 193.03125 219.25 175.9375 C 219.25 159.015625 218.757812 156.054688 214.980469 147.84375 C 212.683594 142.910156 207.753906 135.847656 204.308594 132.394531 C 197.902344 126.152344 180.65625 116.78125 175.402344 116.78125 C 170.3125 116.78125 172.117188 114.320312 179.34375 111.03125 C 200.855469 101.664062 213.667969 74.882812 208.574219 49.90625 C 204.800781 31.828125 193.304688 16.382812 177.371094 8.332031 C 162.921875 0.933594 153.394531 0.113281 74.398438 0.113281 L 0 0.113281 Z M 125.472656 52.695312 C 141.074219 60.75 141.734375 84.082031 126.457031 92.957031 C 121.367188 95.75 117.921875 96.242188 97.71875 96.242188 L 74.726562 96.242188 L 74.234375 72.746094 L 73.742188 49.082031 L 97.226562 49.742188 C 113.8125 50.070312 122.1875 51.054688 125.472656 52.695312 Z M 134.507812 147.183594 C 143.210938 152.441406 146.496094 157.863281 146.496094 167.726562 C 146.496094 176.925781 143.867188 182.019531 135.65625 188.101562 C 131.550781 191.222656 128.433594 191.550781 102.480469 192.042969 L 73.90625 192.539062 L 73.90625 142.746094 L 101.496094 143.40625 C 125.3125 143.898438 129.578125 144.390625 134.507812 147.183594 Z M 134.507812 147.183594 "/>
<path style=" stroke:none;fill-rule:nonzero;fill:rgb(0%,65.882353%,77.647059%);fill-opacity:1;" d="M 226.96875 84.25 L 227.628906 168.546875 L 232.0625 183.003906 C 241.917969 214.882812 263.433594 236.410156 292.992188 244.132812 C 319.269531 250.871094 362.300781 251.199219 386.441406 245.121094 C 403.523438 240.683594 414.195312 234.601562 426.1875 222.769531 C 437.683594 211.269531 444.746094 199.601562 450.164062 183.335938 C 453.941406 171.996094 454.105469 170.679688 454.597656 85.890625 L 455.089844 0.113281 L 382.828125 0.113281 L 382.335938 80.960938 C 381.84375 161.316406 381.84375 161.972656 378.0625 170.1875 C 373.140625 180.867188 370.347656 183.828125 360.492188 188.429688 C 351.296875 192.867188 337.171875 193.683594 326.003906 190.5625 C 317.300781 188.101562 304.816406 175.609375 302.351562 166.902344 C 301.203125 162.464844 300.546875 133.710938 300.546875 80.140625 L 300.546875 0.113281 L 226.476562 0.113281 Z M 226.96875 84.25 "/>
<path style=" stroke:none;fill-rule:nonzero;fill:rgb(0%,65.882353%,77.647059%);fill-opacity:1;" d="M 528.011719 2.085938 C 527.683594 3.238281 507.972656 57.132812 484.324219 121.714844 C 460.675781 186.292969 440.964844 240.515625 440.472656 242.160156 C 439.816406 244.789062 442.117188 244.953125 477.261719 244.628906 L 514.707031 244.132812 L 517.5 234.273438 C 519.144531 228.851562 521.605469 220.140625 523.082031 215.050781 L 525.710938 205.515625 L 610.292969 205.515625 L 615.875 225.238281 L 621.625 244.953125 L 771.074219 244.953125 L 771.074219 155.402344 L 803.101562 154.414062 C 845.3125 153.101562 860.75 148.988281 876.351562 134.53125 C 890.3125 121.714844 897.207031 106.269531 899.34375 83.589844 C 902.460938 49.082031 888.503906 20.492188 862.71875 8.660156 C 845.640625 0.773438 835.621094 -0.0507812 763.191406 0.441406 L 697.992188 0.933594 L 697.992188 119.90625 C 697.992188 185.304688 697.5 238.382812 696.84375 237.726562 C 696.1875 237.234375 676.3125 183.664062 652.664062 118.757812 L 609.636719 0.933594 L 569.234375 0.441406 C 537.699219 0.113281 528.667969 0.441406 528.011719 2.085938 Z M 813.449219 53.519531 C 823.140625 58.121094 826.917969 64.695312 826.917969 77.347656 C 826.917969 90.164062 823.957031 95.257812 812.953125 100.679688 C 806.714844 103.800781 802.773438 104.292969 788.320312 104.460938 L 771.074219 104.460938 L 770.582031 78.988281 C 770.421875 65.019531 770.582031 52.535156 771.074219 51.382812 C 772.390625 47.765625 805.238281 49.574219 813.449219 53.519531 Z M 581.386719 107.089844 C 588.121094 129.765625 593.867188 149.484375 594.195312 150.632812 C 594.6875 152.605469 589.929688 152.933594 568.25 152.933594 C 547.71875 152.933594 541.808594 152.441406 542.300781 150.796875 C 542.792969 149.8125 548.542969 130.09375 555.273438 107.253906 C 561.84375 84.578125 567.753906 65.84375 568.25 65.84375 C 568.742188 65.84375 574.652344 84.410156 581.386719 107.089844 Z M 581.386719 107.089844 "/>
<path style=" stroke:none;fill-rule:nonzero;fill:rgb(0%,65.882353%,77.647059%);fill-opacity:1;" d="M 872.570312 208.804688 C 865.839844 212.914062 863.867188 216.691406 863.867188 226.058594 C 863.867188 232.628906 864.6875 234.601562 869.453125 239.371094 C 884.890625 254.816406 907.0625 236.410156 897.371094 216.199219 C 894.746094 210.777344 886.695312 205.515625 880.785156 205.515625 C 879.144531 205.515625 875.53125 206.996094 872.570312 208.804688 Z M 887.519531 210.613281 C 891.625 212.582031 896.714844 220.964844 896.714844 226.058594 C 896.714844 230.167969 892.117188 238.054688 888.667969 240.023438 C 879.144531 245.121094 867.152344 237.234375 867.152344 225.730469 C 867.152344 213.242188 877.171875 205.847656 887.519531 210.613281 Z M 887.519531 210.613281 "/>
<path style=" stroke:none;fill-rule:nonzero;fill:rgb(0%,65.882353%,77.647059%);fill-opacity:1;" d="M 875.039062 225.238281 C 874.707031 232.304688 875.199219 235.09375 876.679688 235.09375 C 877.664062 235.09375 878.648438 233.617188 878.648438 231.8125 C 878.648438 230.003906 879.636719 228.523438 880.949219 228.523438 C 882.261719 228.523438 883.90625 230.003906 884.398438 231.8125 C 884.890625 233.617188 886.535156 235.09375 887.683594 235.09375 C 889.652344 235.09375 889.652344 234.273438 888.175781 230.988281 C 886.859375 228.03125 886.859375 226.386719 888.339844 224.578125 C 891.789062 220.472656 887.847656 215.375 881.277344 215.375 L 875.691406 215.375 Z M 884.398438 221.949219 C 884.398438 223.261719 883.082031 224.578125 881.605469 224.90625 C 879.46875 225.238281 878.648438 224.414062 878.648438 221.949219 C 878.648438 219.484375 879.46875 218.664062 881.605469 218.992188 C 883.082031 219.320312 884.398438 220.632812 884.398438 221.949219 Z M 884.398438 221.949219 "/>
</g>
</svg>
