<?xml version="1.0" encoding="UTF-8"?>
<svg xmlns="http://www.w3.org/2000/svg" xmlns:xlink="http://www.w3.org/1999/xlink" width="550px" height="550px" viewBox="0 0 550 550" version="1.1">
<g id="surface1">
<path style="fill-rule:nonzero;fill:rgb(19.607843%,46.27451%,76.470588%);fill-opacity:1;stroke-width:1;stroke-linecap:butt;stroke-linejoin:miter;stroke:rgb(19.607843%,46.27451%,76.470588%);stroke-opacity:1;stroke-miterlimit:4;" d="M 61.727273 152.512727 L 58.16 152.243636 C 47.367273 151.429091 37.963636 159.527273 37.156364 170.316364 C 36.345455 181.105455 44.436364 190.509091 55.225455 191.32 L 79.076364 193.109091 L 83.56 193.109091 C 70.534545 184.247273 61.923636 169.374545 61.727273 152.512727 Z M 61.727273 152.512727 " transform="matrix(1.074219,0,0,1.074219,0,0)"/>
<path style="fill-rule:nonzero;fill:rgb(19.607843%,46.27451%,76.470588%);fill-opacity:1;stroke-width:1;stroke-linecap:butt;stroke-linejoin:miter;stroke:rgb(19.607843%,46.27451%,76.470588%);stroke-opacity:1;stroke-miterlimit:4;" d="M 428.461818 158.96 L 425.178182 158.843636 C 423.596364 171.48 416.967273 182.567273 407.374545 190.018182 C 414.592727 190.352727 422.774545 192.367273 430.483636 197.923636 C 439.730909 196.636364 447.003636 188.883636 447.345455 179.236364 C 447.727273 168.421818 439.276364 159.345455 428.461818 158.96 Z M 428.461818 158.96 " transform="matrix(1.074219,0,0,1.074219,0,0)"/>
<path style="fill-rule:nonzero;fill:rgb(19.607843%,46.27451%,76.470588%);fill-opacity:1;stroke-width:1;stroke-linecap:butt;stroke-linejoin:miter;stroke:rgb(19.607843%,46.27451%,76.470588%);stroke-opacity:1;stroke-miterlimit:4;" d="M 150.785455 151.927273 C 150.785455 173.625455 133.196364 191.218182 111.498182 191.218182 C 89.8 191.218182 72.207273 173.625455 72.207273 151.927273 C 72.207273 130.229091 89.8 112.64 111.498182 112.64 C 133.196364 112.64 150.785455 130.229091 150.785455 151.927273 Z M 150.785455 151.927273 " transform="matrix(1.074219,0,0,1.074219,0,0)"/>
<path style="fill-rule:nonzero;fill:rgb(19.607843%,46.27451%,76.470588%);fill-opacity:1;stroke-width:1;stroke-linecap:butt;stroke-linejoin:miter;stroke:rgb(19.607843%,46.27451%,76.470588%);stroke-opacity:1;stroke-miterlimit:4;" d="M 287.629091 40.607273 C 287.629091 63.036364 269.450909 81.214545 247.021818 81.214545 C 224.596364 81.214545 206.414545 63.036364 206.414545 40.607273 C 206.414545 18.181818 224.596364 0 247.021818 0 C 269.450909 0 287.629091 18.181818 287.629091 40.607273 Z M 287.629091 40.607273 " transform="matrix(1.074219,0,0,1.074219,0,0)"/>
<path style="fill-rule:nonzero;fill:rgb(19.607843%,46.27451%,76.470588%);fill-opacity:1;stroke-width:1;stroke-linecap:butt;stroke-linejoin:miter;stroke:rgb(19.607843%,46.27451%,76.470588%);stroke-opacity:1;stroke-miterlimit:4;" d="M 331.8 152.985455 C 331.8 143.523636 334.625455 134.716364 339.465455 127.341818 L 330.716364 113.578182 C 322.989091 101.414545 309.767273 94.149091 295.352727 94.149091 L 279.367273 94.149091 C 276.403636 101.890909 257.712727 150.72 255.08 157.6 L 260.807273 130.625455 C 261.207273 128.730909 260.916364 126.756364 259.985455 125.058182 L 252.12 110.756364 L 259.112727 98.043636 C 260.152727 96.152727 258.781818 93.825455 256.618182 93.825455 L 237.429091 93.825455 C 235.269091 93.825455 233.894545 96.149091 234.934545 98.043636 L 241.927273 110.756364 L 234.032727 125.112727 C 233.12 126.778182 232.818182 128.712727 233.189091 130.574545 L 238.196364 157.6 C 220.545455 112.338182 225.094545 122.192727 214.16 94.149091 L 194.872727 94.149091 C 179.429091 94.149091 165.287273 102.6 157.974545 116.2 L 153.283636 124.916364 C 158.334545 132.701818 161.276364 141.974545 161.276364 151.923636 C 161.276364 168.614545 153.014545 183.4 140.370909 192.436364 C 152.563636 192.436364 154.738182 192.265455 159.774545 193.112727 C 161.429091 191.625455 162.847273 189.847273 163.941818 187.818182 C 178.134545 161.330909 186.981818 146.069091 191.349091 138.763636 C 191.76 138.076364 192.578182 137.749091 193.349091 137.963636 C 194.12 138.178182 194.654545 138.876364 194.654545 139.676364 L 194.654545 218.858182 C 197.909091 225.283636 199.770909 232.523636 199.807273 240.189091 L 200.018182 281.901818 L 200.367273 350.894545 C 200.4 357.243636 198.265455 363.090909 194.665455 367.756364 L 194.665455 469.821818 C 194.665455 482.807273 205.189091 493.330909 218.174545 493.330909 C 231.16 493.330909 241.683636 482.807273 241.683636 469.821818 L 241.683636 281.905455 L 251.836364 281.905455 L 251.836364 469.825455 C 251.836364 482.810909 262.36 493.334545 275.345455 493.334545 C 288.330909 493.334545 298.854545 482.807273 298.854545 469.825455 L 298.854545 365.094545 C 294.356364 365.701818 290.076364 365.181818 286.061818 363.712727 C 272.105455 358.607273 264.934545 343.181818 270.036364 329.225455 L 270.076364 329.116364 C 277.952727 307.556364 289.872727 274.672727 298.429091 250.545455 L 298.429091 141.938182 C 298.429091 141.145455 298.952727 140.450909 299.712727 140.232727 C 300.472727 140.010909 301.283636 140.316364 301.709091 140.985455 L 330.425455 186.174545 C 332.112727 188.832727 334.389091 190.996364 337.021818 192.545455 C 341.48 190.934545 345.887273 190.207273 349.985455 190.014545 C 338.930909 181.432727 331.8 168.029091 331.8 152.985455 Z M 331.8 152.985455 " transform="matrix(1.074219,0,0,1.074219,0,0)"/>
<path style="fill-rule:nonzero;fill:rgb(19.607843%,46.27451%,76.470588%);fill-opacity:1;stroke-width:1;stroke-linecap:butt;stroke-linejoin:miter;stroke:rgb(19.607843%,46.27451%,76.470588%);stroke-opacity:1;stroke-miterlimit:4;" d="M 348.345455 216.850909 C 347.207273 209.92 345.487273 204.589091 344.741818 202.461818 C 330.196364 205.756364 321.912727 218.501818 317.061818 232.610909 C 306.781818 262.538182 282.330909 329.589091 280.985455 333.221818 C 278.098182 341.123636 282.16 349.872727 290.061818 352.76 C 297.956364 355.647273 306.709091 351.589091 309.6 343.683636 C 310.036364 342.52 328.116364 292.985455 339.872727 259.698182 L 339.916364 259.84 C 350.549091 246.654545 350.381818 229.229091 348.345455 216.850909 Z M 348.345455 216.850909 " transform="matrix(1.074219,0,0,1.074219,0,0)"/>
<path style="fill-rule:nonzero;fill:rgb(19.607843%,46.27451%,76.470588%);fill-opacity:1;stroke-width:1;stroke-linecap:butt;stroke-linejoin:miter;stroke:rgb(19.607843%,46.27451%,76.470588%);stroke-opacity:1;stroke-miterlimit:4;" d="M 476.367273 333.221818 C 467.018182 307.603636 449.163636 258.421818 440.290909 232.610909 C 434.396364 215.454545 425.16 205.381818 412.796364 202.505455 C 412.043636 204.658182 410.341818 209.963636 409.207273 216.850909 C 406.741818 231.854545 408.032727 247.890909 417.636364 259.84 C 418.036364 262.061818 445.614545 337.854545 447.752727 343.687273 C 450.643636 351.585455 459.385455 355.650909 467.290909 352.763636 C 475.192727 349.872727 479.258182 341.123636 476.367273 333.221818 Z M 476.367273 333.221818 " transform="matrix(1.074219,0,0,1.074219,0,0)"/>
<path style="fill-rule:nonzero;fill:rgb(19.607843%,46.27451%,76.470588%);fill-opacity:1;stroke-width:1;stroke-linecap:butt;stroke-linejoin:miter;stroke:rgb(19.607843%,46.27451%,76.470588%);stroke-opacity:1;stroke-miterlimit:4;" d="M 439.112727 373.134545 L 420.589091 277.487273 C 400.003636 263.618182 393.690909 241.185455 396.981818 216.850909 C 397.938182 209.792727 399.527273 204.298182 400.4 201.614545 C 382.625455 201.614545 374.487273 201.614545 357.152727 201.614545 C 358.029091 204.298182 359.614545 209.796364 360.570909 216.850909 C 363.869091 241.203636 357.556364 263.76 336.730909 277.650909 L 326.134545 332.36 L 318.236364 373.134545 C 317.221818 378.374545 321.261818 383.218182 326.545455 383.218182 C 329.821818 383.218182 333.767273 383.218182 338.167273 383.218182 L 338.167273 493.72 C 338.167273 503.814545 346.352727 512 356.447273 512 C 366.545455 512 374.727273 503.814545 374.727273 493.72 L 374.727273 383.218182 C 377.356364 383.218182 379.992727 383.218182 382.621818 383.218182 L 382.621818 493.72 C 382.621818 503.814545 390.807273 512 400.901818 512 C 410.996364 512 419.181818 503.814545 419.181818 493.72 L 419.181818 383.218182 C 423.581818 383.218182 427.527273 383.218182 430.807273 383.218182 C 436.116364 383.218182 440.127273 378.370909 439.112727 373.134545 Z M 439.112727 373.134545 " transform="matrix(1.074219,0,0,1.074219,0,0)"/>
<path style="fill-rule:nonzero;fill:rgb(19.607843%,46.27451%,76.470588%);fill-opacity:1;stroke-width:1;stroke-linecap:butt;stroke-linejoin:miter;stroke:rgb(19.607843%,46.27451%,76.470588%);stroke-opacity:1;stroke-miterlimit:4;" d="M 415.065455 152.989091 C 415.065455 173.083636 398.774545 189.374545 378.68 189.374545 C 358.585455 189.374545 342.294545 173.083636 342.294545 152.989091 C 342.294545 132.894545 358.585455 116.603636 378.68 116.603636 C 398.774545 116.603636 415.065455 132.894545 415.065455 152.989091 Z M 415.065455 152.989091 " transform="matrix(1.074219,0,0,1.074219,0,0)"/>
<path style="fill-rule:nonzero;fill:rgb(19.607843%,46.27451%,76.470588%);fill-opacity:1;stroke-width:1;stroke-linecap:butt;stroke-linejoin:miter;stroke:rgb(19.607843%,46.27451%,76.470588%);stroke-opacity:1;stroke-miterlimit:4;" d="M 75.756364 204.770909 L 70.92 204.770909 C 51.352727 204.770909 35.356364 220.687273 35.258182 240.250909 C 35.192727 253.334545 34.792727 332.916364 34.701818 350.956364 C 34.658182 359.28 41.370909 366.058182 49.694545 366.101818 C 49.72 366.101818 49.745455 366.101818 49.770909 366.101818 C 58.058182 366.101818 64.796364 359.407273 64.84 351.109091 C 64.963636 326.24 65.283636 262.930909 65.396364 240.403636 C 65.403636 238.796364 66.709091 237.505455 68.312727 237.509091 C 69.916364 237.512727 71.214545 238.814545 71.214545 240.418182 L 71.214545 260.294545 C 77.094545 252.585455 79.447273 243.530909 79.974545 234.909091 C 80.778182 221.669091 77.309091 209.465455 75.756364 204.770909 Z M 75.756364 204.770909 " transform="matrix(1.074219,0,0,1.074219,0,0)"/>
<path style="fill-rule:nonzero;fill:rgb(19.607843%,46.27451%,76.470588%);fill-opacity:1;stroke-width:1;stroke-linecap:butt;stroke-linejoin:miter;stroke:rgb(19.607843%,46.27451%,76.470588%);stroke-opacity:1;stroke-miterlimit:4;" d="M 151.032727 276.04 C 138.149091 265.843636 131.658182 251.821818 130.552727 234.909091 C 129.876364 224.534545 131.214545 214.156364 133.989091 204.767273 L 88.396364 204.767273 C 91.167273 214.138182 92.512727 224.512727 91.832727 234.909091 C 90.723636 251.883636 84.192727 265.945455 71.214545 276.152727 C 71.214545 276.152727 71.221818 492.261818 71.221818 493.916364 C 71.221818 503.905455 79.316364 512 89.305455 512 C 99.290909 512 107.385455 503.901818 107.385455 493.916364 L 107.385455 349.378182 C 107.385455 349.312727 107.378182 349.247273 107.374545 349.181818 L 115.203636 349.181818 C 115.203636 349.247273 115.196364 349.312727 115.196364 349.378182 L 115.196364 493.916364 C 115.196364 503.901818 123.290909 512 133.276364 512 C 143.265455 512 151.36 503.901818 151.36 493.916364 C 151.36 344.930909 151.032727 276.04 151.032727 276.04 Z M 151.032727 276.04 " transform="matrix(1.074219,0,0,1.074219,0,0)"/>
<path style="fill-rule:nonzero;fill:rgb(19.607843%,46.27451%,76.470588%);fill-opacity:1;stroke-width:1;stroke-linecap:butt;stroke-linejoin:miter;stroke:rgb(19.607843%,46.27451%,76.470588%);stroke-opacity:1;stroke-miterlimit:4;" d="M 187.476364 240.250909 C 187.378182 220.687273 171.381818 204.770909 151.818182 204.770909 L 146.632727 204.770909 C 145.076364 209.465455 141.607273 221.669091 142.414545 234.909091 C 142.934545 243.461818 145.258182 252.436364 151.032727 260.109091 L 151.032727 240.421818 C 151.032727 238.683636 152.44 237.272727 154.178182 237.269091 C 155.916364 237.265455 157.330909 238.665455 157.341818 240.407273 C 157.454545 263.105455 157.774545 326.807273 157.894545 351.112727 C 157.938182 359.407273 164.676364 366.105455 172.963636 366.105455 C 172.989091 366.105455 173.014545 366.105455 173.04 366.105455 C 181.363636 366.061818 188.076364 359.283636 188.032727 350.96 C 187.941818 333.134545 187.541818 253.476364 187.476364 240.250909 Z M 187.476364 240.250909 " transform="matrix(1.074219,0,0,1.074219,0,0)"/>
</g>
</svg>
